<svg xmlns="http://www.w3.org/2000/svg" viewBox="0 0 64 64" role="img" aria-labelledby="title">
  <title id="title">Lambang Ibu Bapa</title>
  <defs>
    <linearGradient id="ivory" x1="8" y1="8" x2="53" y2="57" gradientUnits="userSpaceOnUse">
      <stop stop-color="#fffdf2"/><stop offset="1" stop-color="#d8e6ef"/>
    </linearGradient>
    <linearGradient id="gold" x1="15" y1="8" x2="49" y2="57" gradientUnits="userSpaceOnUse">
      <stop stop-color="#fff0a2"/><stop offset=".45" stop-color="#dca738"/><stop offset="1" stop-color="#855113"/>
    </linearGradient>
  </defs>
  <path d="M32 4 53 12v16c0 14-8.2 24.7-21 31.8C19.2 52.7 11 42 11 28V12L32 4Z" fill="url(#ivory)" stroke="url(#gold)" stroke-width="3"/>
  <path d="M18 40V28.5C18 20.5 24.3 14 32 14s14 6.5 14 14.5V40" fill="none" stroke="#173e68" stroke-width="4" stroke-linecap="round"/>
  <circle cx="32" cy="27" r="5.5" fill="#e0ab3c" stroke="#875515" stroke-width="1.5"/>
  <path d="M22.5 43c1.3-7 4.5-10.5 9.5-10.5S40.2 36 41.5 43" fill="#2a669b" stroke="#173e68" stroke-width="2.3" stroke-linejoin="round"/>
  <path d="m24 14 8-6 8 6" fill="none" stroke="url(#gold)" stroke-width="2.5" stroke-linecap="round" stroke-linejoin="round"/>
</svg>
